<svg viewBox="0 0 683 696" xmlns="http://www.w3.org/2000/svg" fill-rule="evenodd" clip-rule="evenodd" stroke-linecap="round" stroke-linejoin="round" stroke-miterlimit="1.5"><path d="M530.743 128.864L385.96 83.173c-9.804-3.094-20.194 2.562-23.189 12.623L319.367 241.63c-2.994 10.061 2.535 20.742 12.338 23.835l248.687 78.482c9.805 3.094 20.195-2.562 23.189-12.623l43.404-145.834c2.994-10.061-2.533-20.741-12.338-23.835l-84.069-26.571" fill="none" stroke="#666" stroke-opacity=".2" stroke-width="1.44"/><path d="M521.104 144.941L412.9 110.794c-7.907-2.496-16.287 2.066-18.702 10.18l-35.006 117.618c-2.415 8.115 2.044 16.728 9.95 19.223l201.448 63.574c7.906 2.495 16.287-2.067 18.702-10.181l35.006-117.618c2.415-8.114-2.044-16.728-9.951-19.223l-73.412-23.168" fill="none" stroke="#666" stroke-opacity=".2" stroke-width="1.44"/><path d="M386.673 238.436c-2.083 6.999 1.763 14.431 8.585 16.584l172.163 54.331c6.821 2.153 14.05-1.783 16.134-8.783l30.2-101.468c2.083-7.001-1.764-14.432-8.585-16.585l-69.913-22.063m-19.625-6.193l-82.624-26.076c-6.821-2.152-14.052 1.783-16.135 8.784l-30.2 101.469m-9.095-60.178l24.627 7.772-1.05 3.526-24.627-7.772m9.447-31.738l24.626 7.772m-42.469 52.178l24.627 7.772m-49.807-55.381l-2.693-.85-1.872 6.291m.813 7.165l-2.693-.85 1.873-6.291" fill="none" stroke="#666" stroke-opacity=".2" stroke-width="1.44"/><g fill="none" stroke="#666" stroke-opacity=".2" stroke-width="1.44"><path d="M590.747 49.196l-6.976-4.45c-1.499-.956-2.456.694-2.456.694l-65.736 108.856m0 0l-7.565 12.527c-17.319 30.733-15.059 37.798-12.851 39.207m99.962-164.198s-6.71-4.776-11.354 2.914"/><path d="M590.743 49.193l6.975 4.45c1.499.956.485 2.571.485 2.571l-62.916 104.187m0 0l-10.384 17.196c-19.109 29.59-26.169 30.713-28.377 29.304l-2.969 4.917s-.689-1.879-.406-2.347l2.044-3.384M595.22 41.893s7.142 4.06 2.498 11.75"/></g><path d="M585.428 57.901c-1.172-.772-5.085-2.976-9.126 3.94l-29.104 48.194m-28.521 58.471c1.172.772 5.086 2.976 9.127-3.941l35.527-58.832m-44.699 62.744c-1.194-.737-4.838-3.353-.601-10.145l29.103-48.194m38.34-52.208c1.19.74 4.86 3.317 1.411 8.802L563.33 105.74" fill="none" stroke="#666" stroke-opacity=".2" stroke-width="1.44"/><path d="M536.569 138.877c-.538-.348-2.297-1.4-3.256.291l-7.06 11.689m-5.869 14.851c.538.349 2.297 1.401 3.256-.291l8.617-14.27m-11.893 14.548c-.543-.34-2.234-1.489-1.186-3.123l7.06-11.69m10.351-11.992c.542.341 2.239 1.481 1.381 2.797l-5.713 9.462m-37.049 54.911l1.314.839" fill="none" stroke="#666" stroke-opacity=".2" stroke-width="1.44"/><path d="M338.241 167.683S165.394 93.654 150.297 279.066c-15.095 185.411 191.936 12.55 175.574 213.515-16.363 200.965-289.82-208.095-304.586-26.741-14.766 181.355 126.24 229.247 131.964 227.83" fill="none" stroke="#666" stroke-opacity=".2" stroke-width="4.87" stroke-linecap="butt"/><path d="M550.184 97.571l16.602 10.545" fill="none" stroke="#666" stroke-opacity=".2" stroke-width="1.44"/></svg>