<svg viewBox="0 0 1151 827" xmlns="http://www.w3.org/2000/svg" fill-rule="evenodd" clip-rule="evenodd" stroke-linecap="round" stroke-linejoin="round" stroke-miterlimit="1.5"><clipPath id="a"><path d="M-82.422 2.091h1176.77v866.025H-82.422z"/></clipPath><g clip-path="url(#a)" fill="none" stroke="#666" stroke-opacity=".2"><path d="M181.687 588.748s-52.206-17.986-36.061-72.74c.39-1.322.824-2.63 1.302-3.922 3.809-10.321 37.847-102.11 43.674-117.826a8.114 8.114 0 0 1 2.848-3.758c1.443-1.079 3.007-2.264 4.851-3.276a7.445 7.445 0 0 1 2.943-.861c6.713-.548 35.939-2.806 35.939-2.806-.492 2.163-10.17 31.073-17.13 51.545 0 0-3.978 11.619 7.505 15.623m-45.742 138.066s52.075 18.377 71.9-35.096a59.777 59.777 0 0 0 1.303-3.92c3.131-10.557 30.84-104.554 35.585-120.647a8.332 8.332 0 0 0-.017-4.758c-.501-1.757-1.035-3.673-1.893-5.627a7.769 7.769 0 0 0-1.819-2.521c-4.993-4.63-26.803-24.683-26.803-24.683-.899 2.021-10.452 30.975-17.131 51.543 0 0-3.769 11.693-15.253 7.689" stroke-width="2.04"/><path d="M234.226 446.304c2.542.886 14.627-35.476 12.085-36.362l-9.214-3.213c-2.541-.886-14.626 35.475-12.084 36.362l9.213 3.213zm1.191-54.687l21.208 7.395m-14.974-5.317l5.566-16.746 8.692 3.03-5.565 16.747m-22.97 54.67l-15.969 47.812" stroke-width="2.04"/><path d="M251.871 377.687s15.524-59.508 73.489-14.443c57.966 45.065 109.643-29.905 88.413-74.099-21.23-44.192-105.859-54.741-66.078-174.432" stroke-width="4.31" stroke-linecap="butt"/><path d="M347.662 114.807s19.257-54.091 78.651-59.594c.222-.021.447.011.671.015 12.385.209 45.465-3.802 103.971 53.96C714.734 290.624 851.087 74.693 846.876-24.095" stroke-width="4.31" stroke-linecap="butt"/></g></svg>